<?xml version="1.0" standalone="no"?><!DOCTYPE svg PUBLIC "-//W3C//DTD SVG 1.1//EN" "http://www.w3.org/Graphics/SVG/1.1/DTD/svg11.dtd"><svg height="250" node-id="1" sillyvg="true" template-height="250" template-width="250" version="1.1" viewBox="0 0 250 250" width="250" xmlns="http://www.w3.org/2000/svg" xmlns:xlink="http://www.w3.org/1999/xlink"><defs node-id="116"><clipPath id="SVGID_2_" node-id="8"><path d="M 225.60 126.00 L 225.40 132.70 L 224.70 139.10 L 223.70 145.50 L 222.30 151.60 L 220.50 157.60 L 217.70 165.00 L 214.40 172.00 L 210.60 178.70 L 206.30 185.10 L 201.50 191.10 L 196.30 196.70 L 190.70 201.90 L 184.70 206.70 L 178.30 211.00 L 171.60 214.80 L 164.60 218.10 L 157.20 220.90 L 151.20 222.70 L 145.10 224.10 L 138.70 225.10 L 132.30 225.80 L 125.60 226.00 L 118.90 225.80 L 112.50 225.10 L 106.10 224.10 L 100.00 222.70 L 94.00 220.90 L 86.60 218.10 L 79.60 214.80 L 72.90 211.00 L 66.50 206.70 L 60.50 201.90 L 54.90 196.70 L 49.70 191.10 L 44.90 185.10 L 40.60 178.70 L 36.80 172.00 L 33.50 165.00 L 30.70 157.60 L 28.90 151.60 L 27.50 145.50 L 26.50 139.10 L 25.80 132.70 L 25.60 126.00 L 25.80 119.30 L 26.50 112.90 L 27.50 106.50 L 28.90 100.40 L 30.70 94.40 L 33.50 87.00 L 36.80 80.00 L 40.60 73.30 L 44.90 66.90 L 49.70 60.90 L 54.90 55.30 L 60.50 50.10 L 66.50 45.30 L 72.90 41.00 L 79.60 37.20 L 86.60 33.90 L 94.00 31.10 L 100.00 29.30 L 106.10 27.90 L 112.50 26.90 L 118.90 26.20 L 125.60 26.00 L 132.30 26.20 L 138.70 26.90 L 145.10 27.90 L 151.20 29.30 L 157.20 31.10 L 164.60 33.90 L 171.60 37.20 L 178.30 41.00 L 184.70 45.30 L 190.70 50.10 L 196.30 55.30 L 201.50 60.90 L 206.30 66.90 L 210.60 73.30 L 214.40 80.00 L 217.70 87.00 L 220.50 94.40 L 222.30 100.40 L 223.70 106.50 L 224.70 112.90 L 225.40 119.30 L 225.60 126.00 Z" fill="#000000" fill-rule="nonzero" node-id="119" stroke="none" target-height="200" target-width="200" target-x="25.6" target-y="26"></path></clipPath></defs><g node-id="402"><path d="M 225.60 126.00 L 225.40 132.70 L 224.70 139.10 L 223.70 145.50 L 222.30 151.60 L 220.50 157.60 L 217.70 165.00 L 214.40 172.00 L 210.60 178.70 L 206.30 185.10 L 201.50 191.10 L 196.30 196.70 L 190.70 201.90 L 184.70 206.70 L 178.30 211.00 L 171.60 214.80 L 164.60 218.10 L 157.20 220.90 L 151.20 222.70 L 145.10 224.10 L 138.70 225.10 L 132.30 225.80 L 125.60 226.00 L 118.90 225.80 L 112.50 225.10 L 106.10 224.10 L 100.00 222.70 L 94.00 220.90 L 86.60 218.10 L 79.60 214.80 L 72.90 211.00 L 66.50 206.70 L 60.50 201.90 L 54.90 196.70 L 49.70 191.10 L 44.90 185.10 L 40.60 178.70 L 36.80 172.00 L 33.50 165.00 L 30.70 157.60 L 28.90 151.60 L 27.50 145.50 L 26.50 139.10 L 25.80 132.70 L 25.60 126.00 L 25.80 119.30 L 26.50 112.90 L 27.50 106.50 L 28.90 100.40 L 30.70 94.40 L 33.50 87.00 L 36.80 80.00 L 40.60 73.30 L 44.90 66.90 L 49.70 60.90 L 54.90 55.30 L 60.50 50.10 L 66.50 45.30 L 72.90 41.00 L 79.60 37.20 L 86.60 33.90 L 94.00 31.10 L 100.00 29.30 L 106.10 27.90 L 112.50 26.90 L 118.90 26.20 L 125.60 26.00 L 132.30 26.20 L 138.70 26.90 L 145.10 27.90 L 151.20 29.30 L 157.20 31.10 L 164.60 33.90 L 171.60 37.20 L 178.30 41.00 L 184.70 45.30 L 190.70 50.10 L 196.30 55.30 L 201.50 60.90 L 206.30 66.90 L 210.60 73.30 L 214.40 80.00 L 217.70 87.00 L 220.50 94.40 L 222.30 100.40 L 223.70 106.50 L 224.70 112.90 L 225.40 119.30 L 225.60 126.00 Z" fill="#ffffff" fill-opacity="0" fill-rule="nonzero" group-id="1" node-id="127" stroke="none" target-height="200" target-width="200" target-x="25.6" target-y="26"></path></g><g node-id="403"><g clip-path="url(#SVGID_2_)" group-id="2" id="sillyvg_g_1" node-id="130"><path d="M 283.90 91.60 L 282.70 110.90 L 230.50 132.10 L 227.50 130.20 L 223.00 128.50 L 212.80 125.80 L 222.40 123.10 L 224.20 122.30 L 227.30 119.70 L 230.60 117.60 L 258.90 106.00 L 269.60 101.00 L 278.50 96.10 L 281.00 94.30 L 283.90 91.60 Z" fill="#9c4ed3" fill-rule="nonzero" group-id="2,4,18,32,34" node-id="139" stroke="none" target-height="40.500008" target-width="71.09999" target-x="212.8" target-y="91.6"></path><path d="M 71.90 145.70 L 56.90 143.30 L 59.40 141.20 L 61.30 138.40 L 74.60 137.80 L 81.00 137.00 L 91.70 134.80 L 96.80 134.10 L 102.00 133.90 L 109.80 134.10 L 130.00 136.20 L 134.10 136.10 L 138.30 135.40 L 142.30 134.10 L 150.10 130.20 L 165.10 121.30 L 174.50 117.50 L 186.80 114.20 L 209.50 109.50 L 218.10 106.90 L 226.60 103.90 L 234.90 100.20 L 251.10 91.80 L 259.00 87.20 L 282.20 72.40 L 282.30 74.10 L 281.40 81.30 L 281.90 84.10 L 284.00 91.60 L 281.10 94.30 L 278.60 96.10 L 274.60 98.40 L 264.50 103.50 L 230.70 117.60 L 227.40 119.70 L 224.30 122.30 L 222.50 123.10 L 212.80 125.90 L 206.50 123.10 L 203.20 122.00 L 199.80 121.30 L 192.90 121.00 L 184.20 122.20 L 179.10 123.60 L 172.80 125.70 L 166.60 128.30 L 162.00 130.40 L 167.20 137.20 L 171.40 140.90 L 173.70 142.10 L 162.90 148.00 L 159.10 149.30 L 154.90 149.90 L 150.60 149.80 L 142.10 148.90 L 122.20 148.20 L 108.50 146.30 L 96.80 143.60 L 91.70 142.90 L 88.60 143.20 L 76.40 145.80 L 71.90 145.70 Z" fill="#ffffff" fill-rule="nonzero" group-id="2,4,18,32,35" node-id="144" stroke="none" target-height="77.49999" target-width="227.1" target-x="56.9" target-y="72.4"></path><path d="M 282.00 72.40 L 258.90 87.10 L 251.00 91.80 L 234.80 100.20 L 226.50 103.80 L 218.00 106.90 L 209.40 109.50 L 186.70 114.20 L 174.40 117.40 L 165.00 121.30 L 146.10 132.30 L 142.20 134.10 L 138.20 135.40 L 134.00 136.10 L 129.90 136.20 L 109.70 134.10 L 101.90 133.90 L 96.70 134.10 L 91.60 134.80 L 80.90 137.00 L 74.50 137.80 L 61.20 138.40 L 63.20 135.70 L 66.00 132.90 L 69.10 130.30 L 72.20 128.50 L 84.90 123.10 L 94.40 119.50 L 126.80 118.90 L 134.70 117.90 L 142.70 115.50 L 152.10 111.10 L 168.50 101.20 L 174.10 98.20 L 179.80 95.50 L 190.20 92.10 L 211.60 87.30 L 217.30 85.70 L 228.70 81.60 L 237.10 77.80 L 245.30 73.60 L 253.10 68.80 L 260.40 63.80 L 271.40 63.40 L 275.20 63.50 L 278.10 64.20 L 279.90 65.60 L 280.60 66.80 L 281.90 70.90 L 282.00 72.40 Z" fill="#18d5f6" fill-rule="nonzero" group-id="2,4,18,32,36" node-id="149" stroke="none" target-height="74.99999" target-width="220.8" target-x="61.2" target-y="63.4"></path><path d="M 181.30 139.40 L 177.10 136.70 L 172.80 134.40 L 168.30 132.50 L 162.00 130.40 L 166.60 128.30 L 169.90 128.70 L 173.10 129.50 L 180.10 132.90 L 186.60 136.60 L 197.10 143.60 L 204.60 150.20 L 211.80 158.20 L 214.50 160.50 L 219.80 163.50 L 227.00 165.60 L 236.20 166.60 L 251.90 166.80 L 255.60 166.40 L 259.30 165.60 L 263.00 164.20 L 265.30 163.10 L 269.40 160.10 L 274.90 162.30 L 270.50 164.60 L 265.80 166.30 L 256.20 168.80 L 249.50 170.00 L 242.70 170.70 L 235.90 171.00 L 230.80 170.90 L 220.70 169.40 L 213.40 167.30 L 211.20 166.00 L 204.00 157.70 L 198.60 152.80 L 191.50 146.90 L 181.30 139.40 Z" fill="#12d8f9" fill-rule="nonzero" group-id="2,4,18,32,37" node-id="154" stroke="none" target-height="42.699997" target-width="112.899994" target-x="162" target-y="128.3"></path><path d="M 253.50 153.60 L 269.50 160.10 L 266.50 162.40 L 263.10 164.20 L 259.40 165.50 L 255.70 166.40 L 252.00 166.80 L 236.30 166.60 L 227.00 165.60 L 219.80 163.40 L 214.60 160.50 L 211.90 158.20 L 204.70 150.20 L 201.10 146.70 L 193.10 140.70 L 176.80 131.00 L 173.20 129.50 L 170.00 128.70 L 166.70 128.40 L 172.90 125.70 L 179.20 123.60 L 184.30 122.20 L 193.00 121.00 L 199.90 121.30 L 206.60 123.10 L 212.90 125.90 L 223.40 131.90 L 229.40 136.50 L 237.10 144.30 L 239.40 146.30 L 244.70 149.60 L 253.50 153.60 Z" fill="#4c3ce5" fill-rule="nonzero" group-id="2,4,18,32,38" node-id="159" stroke="none" target-height="45.800003" target-width="102.8" target-x="166.7" target-y="121"></path><path d="M 214.10 65.10 L 221.80 64.20 L 229.50 63.80 L 260.60 63.90 L 253.30 68.90 L 245.40 73.70 L 237.20 77.90 L 228.90 81.70 L 217.40 85.80 L 211.80 87.40 L 190.40 92.30 L 180.00 95.60 L 174.30 98.30 L 168.70 101.30 L 152.30 111.20 L 146.70 114.00 L 139.00 117.00 L 134.90 118.00 L 126.90 118.90 L 94.60 119.60 L 113.80 113.50 L 137.10 107.60 L 146.90 104.80 L 156.50 101.60 L 166.00 97.90 L 175.40 93.80 L 184.50 89.30 L 193.40 84.30 L 198.60 80.60 L 207.60 72.90 L 212.50 67.50 L 214.10 65.10 Z" fill="#12b9d4" fill-rule="nonzero" group-id="2,4,18,32,39" node-id="164" stroke="none" target-height="55.8" target-width="166" target-x="94.6" target-y="63.8"></path><path d="M 228.80 197.40 L 231.10 199.60 L 228.60 200.30 L 221.90 201.20 L 214.40 201.00 L 207.60 199.90 L 205.20 199.10 L 200.70 197.00 L 196.40 194.40 L 192.30 191.50 L 188.70 188.10 L 186.60 185.60 L 184.80 182.90 L 183.30 180.00 L 181.20 174.60 L 175.50 164.20 L 179.20 168.00 L 182.30 172.30 L 183.70 174.90 L 185.80 180.30 L 187.90 183.40 L 190.50 186.50 L 196.70 191.70 L 203.20 195.20 L 206.70 196.50 L 210.60 197.60 L 214.80 198.30 L 219.10 198.50 L 223.70 198.20 L 228.80 197.40 Z" fill="#c4c4fa" fill-rule="nonzero" group-id="2,4,18,32,40" node-id="169" stroke="none" target-height="37" target-width="55.600006" target-x="175.5" target-y="164.2"></path><path d="M 228.80 197.40 L 223.70 198.20 L 219.10 198.50 L 214.80 198.30 L 210.60 197.60 L 206.70 196.50 L 203.20 195.20 L 199.80 193.50 L 194.10 189.70 L 190.50 186.40 L 187.80 183.40 L 185.80 180.20 L 182.20 172.20 L 179.10 167.90 L 175.40 164.10 L 172.60 156.50 L 174.90 157.40 L 183.30 156.60 L 186.20 156.90 L 189.10 157.60 L 191.90 158.80 L 194.40 160.30 L 196.70 162.20 L 200.90 166.60 L 207.90 170.20 L 211.40 178.70 L 214.70 185.20 L 218.40 189.20 L 228.80 197.40 Z" fill="#3c1ab7" fill-rule="nonzero" group-id="2,4,18,32,41" node-id="174" stroke="none" target-height="42" target-width="56.199997" target-x="172.6" target-y="156.5"></path><path d="M 230.50 132.10 L 226.10 133.90 L 220.50 130.10 L 212.80 125.90 L 223.00 128.50 L 227.50 130.20 L 230.50 132.10 Z" fill="#7824a0" fill-rule="nonzero" group-id="2,4,18,32,42" node-id="179" stroke="none" target-height="7.9999924" target-width="17.699997" target-x="212.8" target-y="125.9"></path><path d="M 204.40 59.30 L 214.10 65.10 L 210.20 70.20 L 204.60 75.70 L 195.50 82.70 L 184.20 89.20 L 175.10 93.80 L 165.70 97.90 L 156.20 101.50 L 146.60 104.80 L 136.80 107.60 L 113.50 113.50 L 103.80 116.40 L 94.30 119.60 L 75.30 127.10 L 72.00 128.60 L 69.00 130.40 L 65.90 132.90 L 62.00 137.10 L 59.20 141.30 L 56.70 143.40 L 52.70 142.40 L 47.10 139.90 L 43.60 136.90 L 42.20 135.10 L 52.40 127.30 L 57.90 123.90 L 67.50 119.30 L 75.50 117.00 L 91.80 114.80 L 97.20 113.80 L 102.90 112.20 L 108.40 110.10 L 124.60 102.50 L 135.70 98.20 L 141.40 96.80 L 155.70 94.80 L 160.10 93.60 L 164.40 91.90 L 168.50 89.90 L 174.40 86.20 L 180.00 82.00 L 190.50 72.70 L 204.40 59.30 Z" fill="#2e4e89" fill-rule="nonzero" group-id="2,4,18,32,43" node-id="184" stroke="none" target-height="84.09999" target-width="171.90001" target-x="42.2" target-y="59.3"></path><path d="M 207.90 170.10 L 201.00 166.50 L 196.70 162.10 L 194.40 160.20 L 191.90 158.70 L 189.10 157.60 L 186.20 156.80 L 183.30 156.50 L 176.30 157.30 L 173.70 157.00 L 172.60 156.40 L 171.30 154.40 L 169.20 153.00 L 177.80 151.10 L 191.40 147.00 L 198.50 152.90 L 201.00 156.30 L 204.50 162.10 L 207.90 170.10 Z" fill="#2c0a8c" fill-rule="nonzero" group-id="2,4,18,32,44" node-id="189" stroke="none" target-height="23.100006" target-width="38.699997" target-x="169.2" target-y="147"></path><path d="M 204.40 59.30 L 190.50 72.70 L 179.90 82.00 L 174.30 86.20 L 168.50 89.90 L 164.40 91.90 L 160.10 93.60 L 155.70 94.80 L 141.40 96.80 L 135.70 98.20 L 130.10 100.10 L 124.60 102.50 L 108.40 110.10 L 102.90 112.20 L 97.20 113.80 L 75.50 117.00 L 67.50 119.40 L 57.90 123.90 L 52.40 127.30 L 42.20 135.10 L 41.00 133.00 L 40.30 130.80 L 40.50 127.70 L 41.20 124.70 L 45.10 120.20 L 47.50 118.40 L 51.40 116.20 L 55.70 114.50 L 60.10 113.20 L 82.50 109.10 L 86.90 107.90 L 93.40 105.40 L 95.10 107.30 L 96.30 107.70 L 97.60 107.60 L 99.30 106.90 L 100.40 105.60 L 100.60 104.40 L 100.30 103.10 L 99.50 102.00 L 103.30 99.80 L 111.70 95.70 L 116.40 94.00 L 135.30 88.10 L 142.50 85.40 L 149.50 82.30 L 156.20 78.90 L 166.00 73.20 L 175.60 66.90 L 194.40 53.50 L 204.40 59.30 Z" fill="#2e619f" fill-rule="nonzero" group-id="2,4,18,32,45" node-id="194" stroke="none" target-height="81.600006" target-width="164.09999" target-x="40.3" target-y="53.5"></path><path d="M 194.50 53.30 L 175.80 66.70 L 166.20 73.00 L 156.30 78.70 L 149.60 82.20 L 142.60 85.30 L 135.40 88.00 L 116.50 93.90 L 111.80 95.60 L 107.30 97.60 L 99.60 101.90 L 98.60 101.20 L 97.50 100.80 L 96.20 100.90 L 94.10 102.20 L 93.40 103.70 L 93.50 105.20 L 86.80 107.70 L 82.50 108.90 L 64.60 112.00 L 55.70 114.30 L 51.40 116.00 L 47.50 118.20 L 45.10 120.00 L 41.20 124.50 L 42.40 121.70 L 45.80 116.70 L 48.00 114.50 L 51.70 111.70 L 55.70 109.40 L 64.20 105.90 L 83.50 100.10 L 92.90 96.60 L 109.50 88.10 L 116.60 84.80 L 145.80 73.40 L 153.00 70.30 L 164.70 64.10 L 170.30 60.50 L 175.70 56.70 L 186.00 48.30 L 194.50 53.30 Z" fill="#4b83d8" fill-rule="nonzero" group-id="2,4,18,32,46" node-id="199" stroke="none" target-height="76.2" target-width="153.3" target-x="41.2" target-y="48.3"></path><path d="M 191.40 147.00 L 186.30 148.60 L 185.80 147.50 L 185.00 146.60 L 181.70 144.70 L 173.70 142.10 L 176.10 140.90 L 181.30 139.40 L 191.40 147.00 Z" fill="#7824a0" fill-rule="nonzero" group-id="2,4,18,32,47" node-id="204" stroke="none" target-height="9.200012" target-width="17.699997" target-x="173.7" target-y="139.4"></path><path d="M 169.20 153.00 L 161.30 154.40 L 153.40 155.20 L 145.40 155.50 L 137.10 155.20 L 120.70 153.30 L 73.30 145.90 L 76.30 145.90 L 88.50 143.20 L 91.60 143.00 L 96.70 143.60 L 108.40 146.40 L 115.20 147.60 L 122.10 148.30 L 142.00 149.00 L 153.40 150.00 L 159.00 149.40 L 162.80 148.10 L 173.60 142.20 L 179.00 143.80 L 183.80 145.90 L 185.80 147.60 L 186.20 148.70 L 177.80 151.10 L 169.20 153.00 Z" fill="#9c4ed3" fill-rule="nonzero" group-id="2,4,18,32,48" node-id="209" stroke="none" target-height="13.300003" target-width="112.899994" target-x="73.3" target-y="142.2"></path><path d="M 181.30 139.40 L 177.40 140.50 L 173.70 142.10 L 171.40 140.90 L 167.20 137.20 L 162.00 130.40 L 168.30 132.50 L 172.80 134.40 L 177.10 136.70 L 181.30 139.40 Z" fill="#c4c4fa" fill-rule="nonzero" group-id="2,4,18,32,49" node-id="214" stroke="none" target-height="11.700012" target-width="19.300003" target-x="162" target-y="130.4"></path><path d="M 94.60 105.40 L 95.40 106.40 L 96.60 106.80 L 97.90 106.40 L 98.50 105.70 L 98.70 104.70 L 98.10 103.20 L 96.60 102.60 L 95.10 103.20 L 94.70 103.90 L 94.60 105.40 Z M 99.60 101.90 L 100.30 103.00 L 100.70 104.30 L 100.10 106.20 L 97.70 107.50 L 96.40 107.60 L 95.20 107.20 L 94.20 106.40 L 93.40 104.50 L 93.60 103.40 L 94.20 102.30 L 95.10 101.50 L 96.30 101.00 L 98.70 101.20 L 99.60 101.90 Z" fill="#ffffff" fill-rule="nonzero" group-id="2,4,18,32,50" node-id="219" stroke="none" target-height="6.5999985" target-width="7.2999954" target-x="93.4" target-y="101"></path><path d="M 96.60 102.50 L 97.40 102.70 L 98.50 103.80 L 98.50 105.60 L 97.90 106.30 L 97.20 104.90 L 96.60 104.50 L 95.90 104.50 L 94.60 105.40 L 94.70 103.80 L 95.10 103.10 L 96.60 102.50 Z" fill="#c6aaf5" fill-rule="nonzero" group-id="2,4,18,32,51" node-id="224" stroke="none" target-height="3.800003" target-width="3.9000015" target-x="94.6" target-y="102.5"></path><path d="M 97.90 106.30 L 97.30 106.60 L 95.90 106.60 L 94.60 105.30 L 95.90 104.50 L 96.60 104.50 L 97.20 104.90 L 97.90 106.30 Z" fill="#271a3e" fill-rule="nonzero" group-id="2,4,18,32,52" node-id="229" stroke="none" target-height="2.0999985" target-width="3.300003" target-x="94.6" target-y="104.5"></path><path d="M 274.90 162.50 L 249.00 151.90 L 241.80 148.30 L 236.70 144.40 L 229.20 136.80 L 225.90 134.10 L 220.70 130.60 L 212.60 126.10 L 206.70 123.50 L 203.30 122.30 L 199.70 121.50 L 196.00 121.10 L 192.30 121.20 L 185.30 122.20 L 179.10 123.70 L 173.30 125.70 L 162.00 130.50 L 161.90 130.20 L 173.20 125.40 L 179.00 123.40 L 185.30 121.80 L 192.30 120.80 L 196.00 120.70 L 199.80 121.10 L 203.50 121.90 L 206.90 123.10 L 212.80 125.70 L 223.60 132.00 L 229.50 136.50 L 237.00 144.10 L 242.10 148.00 L 249.30 151.60 L 273.40 161.50 L 275.00 162.20 L 274.90 162.50 Z" fill="#000000" fill-rule="nonzero" group-id="2,4,18,33,53" node-id="237" stroke="none" target-height="41.800003" target-width="113.100006" target-x="161.9" target-y="120.7"></path><path d="M 236.00 171.30 L 225.40 170.60 L 215.80 168.50 L 212.20 167.10 L 210.00 165.10 L 206.30 160.40 L 203.80 157.80 L 195.30 150.30 L 186.80 143.50 L 176.70 136.60 L 168.30 132.60 L 162.00 130.50 L 162.10 130.10 L 168.40 132.20 L 172.50 134.00 L 181.50 139.10 L 187.00 143.10 L 198.80 152.70 L 204.00 157.40 L 211.40 165.90 L 213.60 167.20 L 216.00 168.10 L 221.90 169.50 L 228.00 170.50 L 234.50 170.90 L 241.40 170.70 L 248.60 170.00 L 256.30 168.70 L 265.40 166.30 L 275.20 162.30 L 270.40 164.90 L 265.50 166.70 L 256.30 169.10 L 249.10 170.30 L 242.30 171.00 L 236.00 171.30 Z" fill="#000000" fill-rule="nonzero" group-id="2,4,18,33,54" node-id="242" stroke="none" target-height="41.199997" target-width="113.20001" target-x="162" target-y="130.1"></path><path d="M 247.10 167.10 L 231.00 166.20 L 226.40 165.50 L 219.40 163.40 L 216.80 162.10 L 212.50 158.90 L 204.40 150.20 L 200.80 146.70 L 192.80 140.70 L 176.60 131.10 L 173.00 129.60 L 169.90 128.80 L 166.60 128.50 L 166.40 128.30 L 166.60 128.10 L 170.00 128.40 L 173.10 129.30 L 176.70 130.90 L 193.00 140.40 L 201.00 146.50 L 204.60 150.00 L 210.90 156.90 L 214.50 160.20 L 216.90 161.80 L 222.10 164.10 L 226.40 165.10 L 235.60 166.30 L 248.10 166.70 L 251.80 166.50 L 255.50 166.10 L 259.50 165.20 L 263.10 163.80 L 266.50 162.00 L 269.20 159.90 L 269.50 160.10 L 266.70 162.20 L 263.30 164.10 L 259.60 165.50 L 255.60 166.40 L 251.40 167.00 L 247.10 167.10 Z" fill="#000000" fill-rule="nonzero" group-id="2,4,18,33,55" node-id="247" stroke="none" target-height="39" target-width="103.100006" target-x="166.4" target-y="128.1"></path><path d="M 219.40 201.30 L 210.60 200.70 L 205.00 199.20 L 196.90 195.00 L 192.80 192.20 L 189.00 188.70 L 186.70 186.10 L 184.70 183.20 L 183.00 180.00 L 180.90 174.60 L 179.20 171.20 L 175.20 164.10 L 172.40 156.40 L 171.50 154.80 L 169.10 153.00 L 169.20 152.70 L 170.60 153.50 L 171.80 154.60 L 172.70 156.20 L 175.50 163.80 L 181.20 174.30 L 183.30 179.70 L 185.00 182.90 L 187.00 185.70 L 189.20 188.30 L 193.10 191.70 L 197.10 194.60 L 201.30 196.90 L 207.60 199.50 L 214.30 200.60 L 221.80 200.70 L 228.50 199.90 L 230.90 199.20 L 231.00 199.50 L 228.90 200.30 L 226.10 200.90 L 219.40 201.30 Z" fill="#000000" fill-rule="nonzero" group-id="2,4,18,33,56" node-id="252" stroke="none" target-height="48.600006" target-width="61.899994" target-x="169.1" target-y="152.7"></path><path d="M 231.10 199.70 L 218.50 189.40 L 216.10 187.10 L 214.50 185.10 L 211.20 178.60 L 204.40 162.20 L 202.80 159.40 L 198.40 152.90 L 201.10 156.30 L 204.60 162.10 L 211.50 178.50 L 214.80 185.00 L 216.30 187.00 L 218.70 189.30 L 228.90 197.30 L 231.20 199.50 L 231.10 199.70 Z" fill="#000000" fill-rule="nonzero" group-id="2,4,18,33,57" node-id="257" stroke="none" target-height="46.800003" target-width="32.800003" target-x="198.4" target-y="152.9"></path><path d="M 96.80 107.70 L 95.70 107.50 L 93.90 106.30 L 93.40 105.30 L 93.30 103.70 L 94.10 102.10 L 95.10 101.30 L 96.30 100.80 L 97.60 100.70 L 98.80 101.10 L 99.80 101.80 L 100.60 103.00 L 100.90 105.00 L 100.30 106.20 L 99.60 106.80 L 97.80 107.70 L 96.80 107.70 Z M 97.10 100.90 L 95.00 101.60 L 94.20 102.30 L 93.60 103.70 L 93.70 105.20 L 94.30 106.30 L 95.20 107.00 L 96.40 107.40 L 97.60 107.30 L 99.80 106.20 L 100.30 105.40 L 100.50 104.30 L 100.20 103.10 L 99.50 102.00 L 98.50 101.30 L 97.10 100.90 Z" fill="#000000" fill-rule="nonzero" group-id="2,4,18,33,58" node-id="262" stroke="none" target-height="7" target-width="7.5999985" target-x="93.3" target-y="100.7"></path><path d="M 153.50 150.00 L 141.90 149.10 L 122.10 148.40 L 115.20 147.70 L 108.40 146.50 L 95.90 143.70 L 91.50 143.20 L 87.10 143.70 L 78.00 145.90 L 75.60 146.20 L 71.70 145.90 L 71.40 145.80 L 71.50 145.50 L 75.60 145.80 L 78.00 145.60 L 87.10 143.40 L 91.50 142.90 L 96.00 143.40 L 108.30 146.20 L 122.00 148.10 L 137.50 148.50 L 152.50 149.80 L 155.70 149.70 L 158.90 149.20 L 161.60 148.30 L 175.60 141.10 L 181.20 139.40 L 181.40 139.70 L 177.70 140.60 L 173.70 142.40 L 164.50 147.50 L 161.80 148.70 L 159.10 149.50 L 153.50 150.00 Z" fill="#000000" fill-rule="nonzero" group-id="2,4,18,33,59" node-id="267" stroke="none" target-height="10.600006" target-width="109.99999" target-x="71.4" target-y="139.4"></path><path d="M 145.30 155.70 L 137.00 155.40 L 120.60 153.50 L 61.50 144.30 L 52.30 142.40 L 48.90 141.00 L 45.20 138.50 L 42.10 135.20 L 40.90 133.00 L 40.10 130.90 L 40.20 127.90 L 41.00 124.70 L 42.10 122.00 L 43.60 119.30 L 45.50 116.80 L 47.80 114.60 L 51.80 111.60 L 56.00 109.20 L 64.10 105.90 L 88.50 98.30 L 98.10 94.00 L 115.10 85.30 L 142.80 74.40 L 152.80 70.20 L 159.60 66.80 L 166.20 62.90 L 172.80 58.50 L 179.30 53.60 L 185.80 48.20 L 214.10 65.00 L 212.60 67.60 L 210.30 70.40 L 201.50 78.50 L 193.20 84.40 L 184.30 89.30 L 175.20 93.90 L 165.80 98.00 L 156.30 101.60 L 146.70 104.90 L 136.90 107.70 L 113.60 113.70 L 104.00 116.60 L 94.40 119.80 L 75.40 127.30 L 69.10 130.50 L 66.00 133.00 L 62.10 137.10 L 59.30 141.40 L 57.10 143.30 L 120.40 153.20 L 136.80 155.10 L 145.10 155.40 L 152.70 155.10 L 160.60 154.30 L 169.00 152.90 L 177.20 151.00 L 191.30 147.00 L 191.40 147.40 L 186.30 149.00 L 169.20 153.40 L 160.80 154.80 L 152.90 155.60 L 145.40 155.90 L 145.30 155.70 Z M 40.50 130.70 L 41.20 132.80 L 42.40 134.90 L 45.40 138.20 L 49.10 140.60 L 52.50 142.00 L 56.80 143.00 L 59.10 141.20 L 63.10 135.50 L 67.40 131.30 L 72.00 128.40 L 75.30 126.80 L 94.30 119.30 L 103.90 116.10 L 113.50 113.20 L 146.50 104.40 L 156.10 101.20 L 165.60 97.60 L 174.90 93.50 L 184.00 88.90 L 192.90 84.00 L 201.20 78.10 L 209.80 70.10 L 213.70 65.00 L 185.90 48.40 L 179.50 53.80 L 173.00 58.70 L 166.40 63.10 L 159.70 67.00 L 152.90 70.40 L 142.90 74.70 L 115.20 85.60 L 92.90 96.90 L 84.10 100.20 L 64.10 106.30 L 60.30 107.70 L 53.30 111.10 L 48.00 114.90 L 43.90 119.60 L 42.40 122.10 L 41.30 124.80 L 40.50 130.70 Z" fill="#000000" fill-rule="nonzero" group-id="2,4,18,33,60" node-id="272" stroke="none" target-height="107.7" target-width="174" target-x="40.1" target-y="48.2"></path><path d="M 212.80 126.00 L 212.70 125.70 L 222.20 122.90 L 224.00 122.10 L 227.10 119.60 L 230.50 117.50 L 257.40 106.50 L 268.60 101.30 L 278.10 96.20 L 280.80 94.40 L 283.80 91.50 L 284.00 91.70 L 282.80 93.00 L 278.30 96.40 L 268.80 101.60 L 257.50 106.70 L 230.70 117.80 L 227.30 119.90 L 224.20 122.50 L 222.40 123.40 L 212.80 126.00 Z" fill="#000000" fill-rule="nonzero" group-id="2,4,18,33,61" node-id="277" stroke="none" target-height="34.5" target-width="71.3" target-x="212.7" target-y="91.5"></path><path d="M 226.10 134.00 L 226.00 133.70 L 227.20 133.20 L 282.50 110.70 L 283.70 91.50 L 281.50 84.10 L 281.00 81.30 L 281.70 75.50 L 281.80 72.30 L 281.40 69.30 L 280.70 66.90 L 279.10 64.80 L 277.30 63.90 L 275.40 63.60 L 271.60 63.50 L 260.60 64.00 L 230.10 63.80 L 222.00 64.20 L 214.10 65.10 L 214.00 64.80 L 221.90 63.90 L 230.00 63.50 L 260.50 63.70 L 271.50 63.20 L 275.30 63.30 L 277.30 63.60 L 279.20 64.50 L 280.90 66.70 L 281.70 69.20 L 282.10 72.30 L 282.00 75.60 L 281.30 81.30 L 281.80 84.10 L 284.00 91.50 L 282.80 110.80 L 226.10 134.00 Z" fill="#000000" fill-rule="nonzero" group-id="2,4,18,33,62" node-id="282" stroke="none" target-height="70.8" target-width="70" target-x="214" target-y="63.2"></path><path d="M 96.60 106.90 L 95.90 106.80 L 94.80 106.00 L 94.40 104.60 L 95.10 103.00 L 96.70 102.30 L 98.30 103.00 L 99.00 104.60 L 98.80 105.60 L 98.10 106.40 L 96.60 106.90 Z M 94.80 105.30 L 96.00 106.40 L 97.20 106.40 L 98.40 105.40 L 98.60 104.60 L 98.00 103.20 L 96.70 102.70 L 95.30 103.30 L 94.90 103.90 L 94.80 105.30 Z" fill="#000000" fill-rule="nonzero" group-id="2,4,18,33,63" node-id="287" stroke="none" target-height="4.5999985" target-width="4.5999985" target-x="94.4" target-y="102.3"></path><path d="M 96.70 103.40 L 97.00 103.20 L 97.90 103.80 L 98.00 104.90 L 97.30 103.70 L 96.70 103.40" fill="#ffffff" fill-rule="nonzero" group-id="2,5,19" node-id="297" stroke="none" target-height="1.7000046" target-width="1.300003" target-x="96.7" target-y="103.2"></path><path d="M 96.50 105.10 L 97.00 105.90 L 96.40 105.50 L 96.50 105.10 Z" fill="#ffffff" fill-rule="nonzero" group-id="2,6,20" node-id="305" stroke="none" target-height="0.80000305" target-width="0.5999985" target-x="96.4" target-y="105.1"></path><path d="M 259.30 131.40 L 259.30 131.10 L 265.20 128.10 L 273.60 124.10 L 279.70 122.20 L 282.90 121.70 L 283.00 122.00 L 276.80 123.30 L 273.80 124.40 L 259.30 131.40 Z" fill="#000000" fill-rule="nonzero" group-id="2,7,21" node-id="313" stroke="none" target-height="9.699997" target-width="23.700012" target-x="259.3" target-y="121.7"></path><path d="M 272.20 132.70 L 272.20 132.40 L 277.40 129.90 L 282.80 128.10 L 282.90 128.40 L 277.40 130.20 L 272.20 132.70 Z" fill="#000000" fill-rule="nonzero" group-id="2,8,22" node-id="321" stroke="none" target-height="4.599991" target-width="10.699982" target-x="272.2" target-y="128.1"></path><path d="M 34.30 113.50 L 34.20 113.30 L 39.10 108.20 L 41.70 105.90 L 44.50 104.10 L 48.60 102.50 L 55.90 101.90 L 58.50 101.00 L 58.60 101.30 L 55.90 102.20 L 48.50 102.80 L 44.50 104.40 L 41.70 106.20 L 39.10 108.40 L 34.30 113.50 Z" fill="#000000" fill-rule="nonzero" group-id="2,9,23" node-id="329" stroke="none" target-height="12.5" target-width="24.399998" target-x="34.2" target-y="101"></path><path d="M 34.30 102.60 L 34.20 102.40 L 36.10 100.40 L 38.40 98.80 L 40.90 97.70 L 43.60 97.10 L 43.70 97.40 L 41.10 98.00 L 38.60 99.10 L 34.30 102.60 Z" fill="#000000" fill-rule="nonzero" group-id="2,10,24" node-id="337" stroke="none" target-height="5.5" target-width="9.5" target-x="34.2" target-y="97.1"></path><path d="M 236.50 166.80 L 228.40 165.20 L 222.10 162.70 L 219.00 161.10 L 216.30 159.30 L 213.20 156.60 L 210.70 153.70 L 207.30 148.10 L 205.40 145.70 L 199.40 140.30 L 195.20 137.50 L 186.90 133.00 L 178.90 129.50 L 170.60 126.50 L 170.70 126.20 L 179.00 129.20 L 187.10 132.70 L 192.10 135.30 L 199.90 140.30 L 205.70 145.50 L 207.70 147.90 L 210.50 152.70 L 213.90 156.80 L 216.80 159.20 L 219.80 161.20 L 225.60 163.90 L 231.00 165.60 L 236.50 166.50 L 236.70 166.70 L 236.50 166.80 Z" fill="#000000" fill-rule="nonzero" group-id="2,11,25" node-id="345" stroke="none" target-height="40.600006" target-width="66.09999" target-x="170.6" target-y="126.2"></path><path d="M 247.00 167.10 L 233.10 163.50 L 227.00 160.90 L 222.40 157.70 L 220.30 155.80 L 216.30 151.10 L 209.20 142.00 L 207.00 139.80 L 200.80 135.20 L 196.80 132.90 L 189.10 129.40 L 182.00 127.00 L 174.70 124.90 L 182.10 126.70 L 189.20 129.10 L 197.70 133.00 L 205.40 138.10 L 208.70 141.10 L 219.70 154.80 L 224.70 159.10 L 227.80 160.90 L 231.20 162.50 L 235.60 164.00 L 246.90 166.70 L 247.00 167.10 Z" fill="#000000" fill-rule="nonzero" group-id="2,12,26" node-id="353" stroke="none" target-height="42.200005" target-width="72.3" target-x="174.7" target-y="124.9"></path><path d="M 258.70 165.60 L 253.60 165.30 L 245.40 163.70 L 240.90 162.20 L 236.60 160.30 L 232.70 158.00 L 229.20 155.50 L 226.10 152.70 L 223.30 149.70 L 218.10 142.90 L 215.40 139.90 L 212.50 137.30 L 207.90 133.80 L 203.40 131.10 L 194.80 127.20 L 187.10 124.90 L 179.40 123.50 L 179.40 123.10 L 187.10 124.50 L 194.90 126.80 L 199.80 128.80 L 204.40 131.10 L 208.50 133.70 L 215.40 139.50 L 218.30 142.60 L 223.50 149.40 L 226.10 152.30 L 228.90 154.70 L 233.20 157.90 L 237.40 160.20 L 245.40 163.30 L 252.50 164.80 L 259.40 165.20 L 259.60 165.40 L 259.40 165.60 L 258.70 165.60 Z" fill="#000000" fill-rule="nonzero" group-id="2,13,27" node-id="361" stroke="none" target-height="42.500008" target-width="80.20001" target-x="179.4" target-y="123.1"></path><path d="M 260.20 163.40 L 252.40 162.60 L 247.80 161.40 L 243.50 159.70 L 239.20 157.40 L 235.50 154.90 L 231.80 152.00 L 228.30 148.50 L 218.40 137.30 L 210.80 130.70 L 206.80 128.00 L 199.60 124.20 L 193.60 122.30 L 188.20 121.50 L 188.00 121.30 L 188.20 121.10 L 193.70 121.90 L 199.70 123.80 L 207.60 128.00 L 211.50 130.70 L 216.10 134.50 L 220.70 139.00 L 228.60 148.20 L 231.80 151.40 L 238.30 156.30 L 244.40 159.60 L 248.90 161.20 L 252.60 162.20 L 259.50 163.00 L 266.00 162.50 L 266.10 162.80 L 264.40 163.10 L 260.20 163.40 Z" fill="#000000" fill-rule="nonzero" group-id="2,14,28" node-id="369" stroke="none" target-height="42.299995" target-width="78.100006" target-x="188" target-y="121.1"></path><path d="M 266.40 161.10 L 261.80 160.90 L 253.00 159.40 L 249.20 158.20 L 242.20 155.00 L 237.40 151.80 L 234.60 149.30 L 225.50 138.40 L 217.80 131.30 L 211.20 126.70 L 206.70 124.20 L 200.60 121.70 L 200.70 121.40 L 206.80 123.90 L 211.40 126.40 L 218.00 131.10 L 225.80 138.20 L 234.90 149.20 L 237.80 151.70 L 242.40 154.80 L 248.80 157.80 L 252.70 159.10 L 257.40 160.20 L 262.40 160.80 L 268.30 160.90 L 268.30 161.30 L 266.40 161.10 Z" fill="#000000" fill-rule="nonzero" group-id="2,15,29" node-id="377" stroke="none" target-height="39.9" target-width="67.69998" target-x="200.6" target-y="121.4"></path><path d="M 261.50 157.00 L 257.50 156.50 L 253.80 155.60 L 247.40 152.90 L 242.50 149.70 L 239.30 147.10 L 235.30 142.80 L 242.70 149.50 L 247.70 152.70 L 254.00 155.40 L 257.60 156.30 L 261.60 156.80 L 261.80 157.00 L 261.50 157.00 Z" fill="#000000" fill-rule="nonzero" group-id="2,16,30" node-id="385" stroke="none" target-height="14.199997" target-width="26.499985" target-x="235.3" target-y="142.8"></path><path d="M 101.30 101.60 L 100.00 100.00 L 98.80 99.10 L 96.50 98.80 L 95.00 99.60 L 94.80 99.40 L 96.50 98.60 L 97.70 98.50 L 99.00 98.90 L 100.20 99.80 L 101.50 101.40 L 101.30 101.60 Z" fill="#000000" fill-rule="nonzero" group-id="2,17,31" node-id="393" stroke="none" target-height="3.0999985" target-width="6.699997" target-x="94.8" target-y="98.5"></path></g></g><path d="M 225.60 126.00 L 225.40 132.70 L 224.70 139.10 L 223.70 145.50 L 222.30 151.60 L 220.50 157.60 L 217.70 165.00 L 214.40 172.00 L 210.60 178.70 L 206.30 185.10 L 201.50 191.10 L 196.30 196.70 L 190.70 201.90 L 184.70 206.70 L 178.30 211.00 L 171.60 214.80 L 164.60 218.10 L 157.20 220.90 L 151.20 222.70 L 145.10 224.10 L 138.70 225.10 L 132.30 225.80 L 125.60 226.00 L 118.90 225.80 L 112.50 225.10 L 106.10 224.10 L 100.00 222.70 L 94.00 220.90 L 86.60 218.10 L 79.60 214.80 L 72.90 211.00 L 66.50 206.70 L 60.50 201.90 L 54.90 196.70 L 49.70 191.10 L 44.90 185.10 L 40.60 178.70 L 36.80 172.00 L 33.50 165.00 L 30.70 157.60 L 28.90 151.60 L 27.50 145.50 L 26.50 139.10 L 25.80 132.70 L 25.60 126.00 L 25.80 119.30 L 26.50 112.90 L 27.50 106.50 L 28.90 100.40 L 30.70 94.40 L 33.50 87.00 L 36.80 80.00 L 40.60 73.30 L 44.90 66.90 L 49.70 60.90 L 54.90 55.30 L 60.50 50.10 L 66.50 45.30 L 72.90 41.00 L 79.60 37.20 L 86.60 33.90 L 94.00 31.10 L 100.00 29.30 L 106.10 27.90 L 112.50 26.90 L 118.90 26.20 L 125.60 26.00 L 132.30 26.20 L 138.70 26.90 L 145.10 27.90 L 151.20 29.30 L 157.20 31.10 L 164.60 33.90 L 171.60 37.20 L 178.30 41.00 L 184.70 45.30 L 190.70 50.10 L 196.30 55.30 L 201.50 60.90 L 206.30 66.90 L 210.60 73.30 L 214.40 80.00 L 217.70 87.00 L 220.50 94.40 L 222.30 100.40 L 223.70 106.50 L 224.70 112.90 L 225.40 119.30 L 225.60 126.00 Z" fill="none" group-id="3" node-id="400" stroke="#000000" stroke-linecap="round" stroke-opacity="0" stroke-width="3" target-height="200" target-width="200" target-x="25.6" target-y="26"></path></svg>